<svg width="93" height="93" viewBox="0 0 93 93" fill="none" xmlns="http://www.w3.org/2000/svg">
<g filter="url(#filter0_d)">
<path d="M46.5 79.8334C67.2107 79.8334 84 63.0441 84 42.3334C84 21.6227 67.2107 4.83337 46.5 4.83337C25.7893 4.83337 9 21.6227 9 42.3334C9 63.0441 25.7893 79.8334 46.5 79.8334Z" fill="#FEFFD6"/>
<path d="M46.7083 76.9166C65.6931 76.9166 81.0833 61.5264 81.0833 42.5416C81.0833 23.5568 65.6931 8.16663 46.7083 8.16663C27.7235 8.16663 12.3333 23.5568 12.3333 42.5416C12.3333 61.5264 27.7235 76.9166 46.7083 76.9166Z" stroke="#2C85C7" stroke-width="7" stroke-miterlimit="10"/>
<path d="M64.0268 48.4837C63.6719 49.4258 63.0749 50.2577 62.2962 50.8956C61.5174 51.5336 60.5843 51.9551 59.5908 52.1176C56.8326 52.4041 56.849 48.4837 56.9472 46.6667C57.0227 45.3238 57.2005 43.9886 57.4792 42.6727C57.8393 40.9048 58.1667 38.1958 60.6221 38.4495C61.221 38.5459 61.789 38.7812 62.2808 39.1365C62.7725 39.4918 63.1742 39.9573 63.4539 40.4956C63.999 41.5967 64.3163 42.7965 64.3869 44.0231" fill="#845040"/>
<path d="M28.375 48.4837C28.7286 49.4237 29.323 50.2541 30.0987 50.8919C30.8744 51.5297 31.8041 51.9524 32.7947 52.1177C35.5528 52.4041 35.5365 48.4837 35.4383 46.6668C35.3628 45.3238 35.1849 43.9886 34.9063 42.6727C34.5461 40.9212 34.2515 38.1958 31.8043 38.4495C31.2054 38.546 30.6373 38.7813 30.1456 39.1365C29.6539 39.4918 29.2521 39.9573 28.9725 40.4956C28.4274 41.5968 28.11 42.7965 28.0394 44.0232C27.8085 45.5161 27.9233 47.0421 28.375 48.4837Z" fill="#845040"/>
<path d="M49.4338 66.9971C48.5343 67.6308 47.4609 67.9709 46.3605 67.9709C45.2602 67.9709 44.1868 67.6308 43.2873 66.9971C43.2873 66.9971 30.6503 61.0142 29.2508 46.9123V32.8512C29.2508 23.7828 36.887 16.4331 46.2992 16.4331C49.3347 16.4138 52.3212 17.1989 54.9549 18.7083C57.5885 20.2178 59.7755 22.3979 61.2932 25.0268C62.6442 27.4134 63.3547 30.1089 63.3557 32.8512V46.9532C62.7746 61.3007 49.4338 66.9971 49.4338 66.9971Z" fill="#9A6651"/>
<path d="M36.314 44.9971C37.2951 45.3919 38.3527 45.5598 39.4078 45.4882C40.0689 45.4501 40.723 45.3319 41.3557 45.1362L42.8371 44.9971C42.8371 44.9971 39.817 41.1831 37.7054 41.2977C36.3344 41.4187 35.0381 41.9751 34.006 42.8855C34.3561 43.1266 34.6679 43.4191 34.9308 43.7531C35.2407 44.3101 35.7274 44.7478 36.314 44.9971Z" fill="white"/>
<path d="M40.218 43.5074C40.1965 43.7508 40.1272 43.9876 40.0142 44.2043C39.9012 44.421 39.7466 44.6133 39.5593 44.7702C39.1809 45.0872 38.6922 45.2409 38.2005 45.1975C37.7088 45.1541 37.2546 44.9171 36.9376 44.5388C36.6207 44.1604 36.467 43.6716 36.5104 43.18C36.5538 42.6883 36.7908 42.2341 37.1691 41.9171C37.5475 41.6001 38.0362 41.4465 38.5279 41.4899C39.0195 41.5333 39.4738 41.7702 39.7908 42.1486C40.1077 42.5269 40.2614 43.0157 40.218 43.5074Z" fill="#491613"/>
<path d="M39.4486 43.4338C39.4237 43.7214 39.2855 43.9873 39.0645 44.173C38.8434 44.3588 38.5577 44.4491 38.2701 44.4241C38.0556 44.4055 37.8514 44.3237 37.6834 44.1891C37.5154 44.0544 37.3911 43.873 37.3262 43.6677C37.2614 43.4624 37.2588 43.2425 37.3189 43.0358C37.379 42.829 37.4991 42.6448 37.6639 42.5063C37.8287 42.3677 38.0309 42.2812 38.2449 42.2577C38.4589 42.2341 38.6751 42.2745 38.8661 42.3737C39.0572 42.473 39.2145 42.6267 39.3182 42.8154C39.4219 43.0041 39.4673 43.2193 39.4486 43.4338Z" fill="#311312"/>
<path d="M43.1482 45.2098C43.1482 45.2098 40.9302 41.5432 38.2374 41.0521C38.1145 40.8212 38.0421 40.5667 38.0251 40.3056C38.0082 40.0445 38.0471 39.7828 38.1392 39.538C37.9427 39.7196 37.7936 39.9466 37.7052 40.1991C37.6167 40.4517 37.5915 40.7221 37.6318 40.9866C37.4028 40.974 37.1733 40.974 36.9443 40.9866C36.769 40.7912 36.6404 40.5585 36.5681 40.3062C36.4958 40.0538 36.4817 39.7884 36.5269 39.5298C36.3687 39.7572 36.2656 40.0184 36.2258 40.2925C36.186 40.5667 36.2106 40.8464 36.2977 41.1094C36.0185 41.1788 35.7449 41.269 35.4793 41.3795C35.3739 41.283 35.2854 41.1696 35.2174 41.0439C35.0774 40.763 35.0288 40.4454 35.0782 40.1354C34.926 40.4389 34.869 40.7812 34.9145 41.1176C34.9319 41.2803 34.9791 41.4384 35.0537 41.5841C34.8163 41.7069 34.5953 41.8378 34.3825 41.9688C34.1364 41.8394 33.9247 41.6531 33.7653 41.4253C33.6058 41.1975 33.5031 40.9348 33.4659 40.6593C33.3614 41.0292 33.3815 41.4232 33.5232 41.7805C33.6063 41.9734 33.7258 42.1484 33.8751 42.2962C33.4867 42.5789 33.0697 42.8203 32.631 43.0164C33.7801 43.8134 35.0156 44.4779 36.3141 44.997C35.9063 44.7424 35.562 44.3981 35.3074 43.9904C35.1283 43.6713 34.9316 43.3626 34.7181 43.0655C34.7181 43.0655 36.1504 41.3549 37.9264 41.7232C40.259 42.2552 42.256 44.7843 42.256 44.7843L41.3557 45.1362L43.1482 45.2098Z" fill="#282828"/>
<path d="M58.1667 44.997C57.1799 45.4417 56.106 45.6599 55.0239 45.6354C54.3436 45.6225 53.6674 45.5263 53.0105 45.349L51.48 45.2017C51.48 45.2017 54.4182 41.2076 56.6199 41.2322C58.0291 41.2925 59.3811 41.8064 60.4748 42.6972C60.1297 42.9583 59.8262 43.2701 59.5745 43.622C59.2745 44.2266 58.7782 44.7114 58.1667 44.997Z" fill="white"/>
<path d="M54.0745 43.622C54.1247 43.9958 54.2847 44.3462 54.5341 44.6291C54.7835 44.9119 55.1112 45.1145 55.4758 45.2111C55.8403 45.3078 56.2253 45.2942 56.5821 45.172C56.9389 45.0499 57.2514 44.8247 57.4802 44.5249C57.7091 44.2252 57.8439 43.8643 57.8676 43.4879C57.8914 43.1115 57.803 42.7366 57.6137 42.4104C57.4244 42.0843 57.1426 41.8216 56.804 41.6556C56.4654 41.4895 56.0851 41.4276 55.7114 41.4777C55.463 41.5109 55.2237 41.5928 55.0071 41.7186C54.7904 41.8443 54.6006 42.0116 54.4486 42.2107C54.2966 42.4098 54.1853 42.637 54.1211 42.8791C54.0569 43.1213 54.0411 43.3737 54.0745 43.622Z" fill="#491613"/>
<path d="M54.8929 43.5156C54.9206 43.734 55.0123 43.9393 55.1565 44.1055C55.3008 44.2718 55.4911 44.3915 55.7034 44.4496C55.9157 44.5077 56.1404 44.5016 56.3492 44.432C56.558 44.3624 56.7415 44.2325 56.8765 44.0586C57.0115 43.8847 57.0919 43.6748 57.1075 43.4552C57.1232 43.2357 57.0734 43.0164 56.9645 42.8252C56.8555 42.6339 56.6924 42.4792 56.4955 42.3807C56.2987 42.2822 56.0771 42.2442 55.8587 42.2716C55.7136 42.2898 55.5735 42.3364 55.4464 42.4088C55.3193 42.4812 55.2077 42.5779 55.118 42.6935C55.0283 42.809 54.9623 42.9411 54.9237 43.0822C54.885 43.2232 54.8746 43.3705 54.8929 43.5156Z" fill="#311312"/>
<path d="M51.1608 45.4882C51.1608 45.4882 53.2806 41.6333 55.9896 41.0195C56.0989 40.7748 56.1553 40.5099 56.1553 40.2419C56.1553 39.974 56.0989 39.7091 55.9896 39.4644C56.2012 39.6428 56.3656 39.8704 56.4684 40.1274C56.5712 40.3843 56.6091 40.6626 56.5789 40.9376C56.8342 40.9072 57.0914 40.8963 57.3483 40.9049C57.5185 40.6974 57.6399 40.4544 57.7037 40.1938C57.7674 39.9331 57.7718 39.6615 57.7166 39.3989C57.8938 39.6279 58.0138 39.8959 58.0665 40.1807C58.1191 40.4654 58.103 40.7586 58.0194 41.0358C58.2976 41.0984 58.5711 41.1805 58.8378 41.2814C58.9476 41.1812 59.0342 41.0583 59.0916 40.9212C59.2297 40.6307 59.2671 40.3024 59.198 39.9882C59.3656 40.2929 59.4396 40.6402 59.4108 40.9867C59.3961 41.1532 59.3546 41.3163 59.288 41.4696C59.5335 41.5842 59.7627 41.7151 59.9919 41.8379C60.2366 41.6948 60.4437 41.4954 60.596 41.2563C60.7483 41.0172 60.8414 40.7452 60.8676 40.4629C60.9942 40.8372 60.9942 41.2427 60.8676 41.6169C60.7895 41.8159 60.6758 41.9989 60.532 42.1571C60.9441 42.4229 61.3797 42.6503 61.8334 42.8364C60.6963 43.6922 59.4663 44.417 58.1667 44.9971C58.5746 44.7194 58.9111 44.3492 59.1489 43.9168C59.3186 43.5844 59.5072 43.2619 59.7136 42.951C59.7136 42.951 58.1667 41.2486 56.3661 41.7233C53.9926 42.3617 52.0529 45.0463 52.0529 45.0463L52.9941 45.3573L51.1608 45.4882Z" fill="#282828"/>
<path d="M50.948 40.9048C51.0582 41.0281 51.2097 41.1069 51.3739 41.1265C51.5382 41.1461 51.7039 41.1051 51.8401 41.0112C53.0923 40.0863 56.3988 37.852 58.0685 37.631C60.1474 37.2954 63.3884 38.4003 63.3884 38.4003C63.3884 38.4003 59.067 36.4606 56.9799 36.7634C55.343 37.0171 52.3475 39.0142 51.0707 39.8981C50.971 39.9656 50.8922 40.0596 50.843 40.1695C50.7938 40.2794 50.7763 40.4008 50.7924 40.5201C50.808 40.6479 50.8622 40.7679 50.948 40.8639V40.9048Z" fill="#282828"/>
<path d="M43.4346 41.0111C43.3276 41.1385 43.177 41.2216 43.0122 41.2443C42.8473 41.267 42.6799 41.2276 42.5425 41.1338C41.2739 40.3154 37.9182 38.1137 36.2486 37.86C34.1615 37.5654 30.945 38.7358 30.945 38.7358C30.945 38.7358 35.2255 36.7142 37.3207 37.0088C38.9577 37.238 41.9941 39.1614 43.2955 40.0207C43.396 40.0879 43.4759 40.1815 43.5265 40.2913C43.577 40.4011 43.5962 40.5227 43.5819 40.6428C43.5714 40.7703 43.5197 40.891 43.4346 40.9865V41.0111Z" fill="#282828"/>
<path d="M49.4092 50.9226C48.5089 51.0782 47.936 51.8311 47.0766 52.0767C46.029 52.3877 44.9487 51.5037 44.0565 51.07C43.97 51.0302 43.8723 51.0219 43.7803 51.0464C43.6883 51.071 43.6077 51.1268 43.5524 51.2044C43.4972 51.2819 43.4707 51.3763 43.4776 51.4713C43.4844 51.5663 43.5242 51.6559 43.59 51.7247C44.4085 52.4695 45.3333 53.4926 46.5446 53.3616C47.7559 53.2307 48.7954 52.2485 49.7284 51.6511C50.1295 51.3646 49.8184 50.849 49.4092 50.9226Z" fill="#844D39"/>
<path d="M40.1608 58.3134C40.1608 58.3134 46.7084 66.3178 53.256 58.3134H40.1608Z" fill="#844D39"/>
</g>
<defs>
<filter id="filter0_d" x="0.833313" y="0.666626" width="91.75" height="91.75" filterUnits="userSpaceOnUse" color-interpolation-filters="sRGB">
<feFlood flood-opacity="0" result="BackgroundImageFix"/>
<feColorMatrix in="SourceAlpha" type="matrix" values="0 0 0 0 0 0 0 0 0 0 0 0 0 0 0 0 0 0 127 0"/>
<feOffset dy="4"/>
<feGaussianBlur stdDeviation="4"/>
<feColorMatrix type="matrix" values="0 0 0 0 0 0 0 0 0 0 0 0 0 0 0 0 0 0 0.25 0"/>
<feBlend mode="normal" in2="BackgroundImageFix" result="effect1_dropShadow"/>
<feBlend mode="normal" in="SourceGraphic" in2="effect1_dropShadow" result="shape"/>
</filter>
</defs>
</svg>
