<?xml version="1.0" encoding="UTF-8"?>
<!DOCTYPE svg PUBLIC "-//W3C//DTD SVG 1.1//EN" "http://www.w3.org/Graphics/SVG/1.1/DTD/svg11.dtd">
<!-- Creator: CorelDRAW X8 -->
<svg xmlns="http://www.w3.org/2000/svg" xml:space="preserve" width="203.655mm" height="100.978mm" version="1.1" style="shape-rendering:geometricPrecision; text-rendering:geometricPrecision; image-rendering:optimizeQuality; fill-rule:evenodd; clip-rule:evenodd"
viewBox="0 0 20366 10098"
 xmlns:xlink="http://www.w3.org/1999/xlink">
 <defs>
  <style type="text/css">
   <![CDATA[
    .str0 {stroke:white;stroke-width:100}
    .fil0 {fill:none}
    .fil3 {fill:#CFCFCF}
    .fil2 {fill:#E6E6E6}
    .fil1 {fill:white}
    .fil4 {fill:#CFCFCF;fill-rule:nonzero}
   ]]>
  </style>
 </defs>
 <g id="Layer_x0020_1">
  <metadata id="CorelCorpID_0Corel-Layer"/>
  <path class="fil0 str0" d="M4750 7960l0 0zm0 0l-104 506c-146,1062 495,2060 1591,1336l375 -257c75,-46 121,-76 195,-120 1124,-670 2586,-1021 3916,-1111 367,-25 775,-80 1165,-78 130,1 169,-20 294,-21l907 -39c818,-24 1599,-54 2344,-160 531,-76 1033,-174 1533,-340 245,-80 663,-260 888,-373 853,-500 796,-497 1418,-1008 225,-175 574,-584 730,-847 440,-746 410,-1479 -45,-2246 -176,-298 -356,-449 -583,-679 -978,-986 -3157,-1714 -4413,-1975 -813,-168 -1356,-265 -2203,-360 -1078,-119 -2221,-149 -3356,-135l-1516 101c-513,40 -1148,141 -1663,230 -988,170 -2091,458 -3016,828 -748,298 -1190,542 -1856,1003 -68,47 -123,98 -186,148 -72,57 -101,95 -167,150 -956,801 -1356,2111 -403,3274l550 553c39,32 55,52 96,82 459,351 1084,725 1619,944 403,164 977,394 1402,511 230,64 364,149 488,83z"/>
  <path class="fil1" d="M18423 6737c-152,89 -312,174 -481,257 -195,96 -400,193 -599,281 -2957,1312 -7786,-142 -11076,2220 -1588,1140 -1552,-1221 -1200,-1579 1770,-1211 3803,-1613 6157,-1649 1709,-26 4362,628 5983,525 410,-26 772,-132 1216,-55zm-9550 301l0 -215 -771 0 0 983 278 0 0 -337 434 0 0 -215 -434 0 0 -216 493 0zm618 788c315,0 547,-217 547,-512 0,-295 -232,-511 -547,-511 -314,0 -546,216 -546,511 0,295 232,512 546,512zm0 -231c-149,0 -265,-111 -265,-281 0,-170 116,-281 265,-281 149,0 266,111 266,281 0,170 -117,281 -266,281zm1189 231c314,0 546,-217 546,-512 0,-295 -232,-511 -546,-511 -315,0 -547,216 -547,511 0,295 232,512 547,512zm0 -231c-149,0 -266,-111 -266,-281 0,-170 117,-281 266,-281 149,0 265,111 265,281 0,170 -116,281 -265,281zm692 211l465 0c326,0 549,-190 549,-492 0,-302 -223,-491 -549,-491l-465 0 0 983zm278 -222l0 -539 176 0c167,0 279,99 279,269 0,170 -112,270 -279,270l-176 0zm1228 242c292,0 435,-147 435,-317 0,-363 -557,-250 -557,-401 0,-49 42,-89 159,-89 85,0 178,26 272,76l86 -206c-97,-57 -229,-86 -357,-86 -292,0 -436,143 -436,319 0,365 560,252 560,407 0,48 -45,80 -161,80 -113,0 -237,-39 -324,-96l-91 204c92,65 252,109 414,109z"/>
  <path class="fil1" d="M10179 286c5466,0 9897,1825 9897,4075 0,828 -600,1598 -1631,2241 -405,-7 -815,106 -1203,125 -2824,141 -8188,-2086 -12601,1012 -2630,-733 -4358,-1972 -4358,-3378 0,-2250 4430,-4075 9896,-4075zm-5675 6987c-50,29 -100,59 -150,89 -3027,-947 -4598,-2192 -3490,-3985 -925,1736 662,2958 3640,3896zm4768 -3821c-90,0 125,-248 152,-281 57,-74 171,-217 281,-226 14,67 -3,104 -40,169 -71,126 -229,338 -393,338zm-2208 -1343c-302,0 -388,-27 -657,-89 201,-301 851,-305 851,-75 0,52 -25,27 -86,93 -36,38 -38,71 -108,71zm-1284 -268c-159,-77 -704,-195 -895,-195 -822,0 -927,753 -568,836 82,-54 91,-102 267,-166 297,-108 736,-28 1047,-28 0,135 -39,77 8,350 14,83 35,118 52,188 -437,0 -779,107 -1109,353 -259,193 -502,523 -602,876 -110,391 -74,837 165,1167 186,258 557,484 993,484 402,0 670,-31 975,-279 106,-86 172,-160 246,-276 93,-144 206,-476 93,-655 -35,-55 -63,-46 -120,-74 -204,305 -496,314 -821,314 -147,0 -270,-67 -347,-145 -358,-360 -62,-1013 435,-1275 138,-73 221,-77 412,-97 117,-12 136,80 362,133 371,86 496,-145 132,-356 -57,-33 -101,-30 -134,-90 -170,-309 -15,-407 -196,-476l-325 -107c-2,-1 -7,-3 -10,-5 202,0 712,105 1268,105 22,94 206,284 329,313 -7,80 -41,118 -69,185 -29,71 -50,112 -81,173 -122,246 -178,279 -149,403 129,31 129,-19 274,-308 52,-105 148,-268 174,-378 152,101 186,108 -39,483 -155,261 -409,785 -409,1084 0,102 38,241 81,307 220,338 631,63 841,-147 68,-68 126,-139 187,-215l175 -229c0,234 32,385 145,511 199,222 302,235 571,235 486,0 827,-421 1048,-788 49,-81 82,-159 126,-246l171 -383c15,-63 -2,-81 -47,-120 -107,25 -177,207 -300,371 -90,120 -126,148 -226,237 -157,141 -588,369 -764,130 -64,-87 -53,-122 -53,-260 238,125 432,94 604,-128 148,-192 349,-486 318,-749 -33,-288 -207,-287 -399,-287 -346,0 -708,399 -899,683 -108,161 -90,154 -235,347 -231,304 -657,554 -657,372 0,-121 133,-333 187,-424 89,-149 186,-320 186,-486 0,-226 -329,-447 -523,-492 62,-265 75,-173 75,-478 0,-79 -26,-80 -30,-164 -8,-166 -10,-287 -167,-445 -58,-57 -169,-124 -246,-157 -195,-82 -317,-70 -527,-70 -305,0 -639,122 -832,317 -56,56 -147,140 -168,221zm7895 1850l-15 15 15 -15zm15 -30l-15 30 15 -30zm15 -15l-15 15 15 -15zm0 0l0 0zm-45 60c-11,42 -44,75 -71,108 -95,114 -120,143 -263,215 -45,22 -37,10 -58,46l-122 252c-179,299 -530,958 -963,962 -651,6 -232,-1434 -125,-1709 27,-69 10,-86 -6,-146 -46,-180 -4,-401 36,-494 1,-2 3,-7 5,-10 0,300 11,416 105,627 172,388 562,509 984,417 275,-60 343,-177 478,-268zm-1567 -806c0,-38 24,-2 9,0 0,0 -9,42 -9,0zm1418 493c-595,0 -877,-687 -377,-1243 135,-151 258,-295 496,-295 343,0 50,1081 -6,1278 -25,88 -58,260 -113,260zm-2448 955l0 104c0,1066 902,1546 1740,994l135 -89c451,-314 934,-940 1165,-1402 145,-290 320,-668 389,-999 52,-247 32,-189 55,-423 21,-216 -42,-553 -167,-741 -292,-437 -940,-368 -1368,-197 -273,109 -592,330 -811,533 -575,531 -1138,1463 -1138,2220zm4090 -672l0 0zm0 0c10,-130 425,-1191 496,-1369l129 -333c11,-31 14,-32 16,-61 6,-85 -66,-213 -220,-54 -398,411 -1237,2050 -1288,2652 -26,313 61,657 374,673 176,9 178,-19 284,-75 0,-83 0,-51 -25,-110 -20,-46 -21,-62 -29,-120 -33,-220 104,-627 113,-740 2,3 4,5 5,10 0,6 3,8 4,11 4,12 7,21 10,34 6,22 6,30 12,63l104 389c72,198 133,334 270,476l22 23c38,35 50,46 95,69 76,39 173,54 271,31 144,-32 325,-165 356,-300 37,27 37,43 66,83 21,29 47,54 72,77 297,277 786,44 1053,-224 100,-100 205,-213 272,-339 -65,-123 -216,-273 -320,-293 -55,-10 -86,37 -130,66 -190,129 -437,83 -304,-319 72,-220 327,-634 590,-634 153,-1 149,122 149,269 -78,-18 -86,-67 -193,-60 -70,4 -127,50 -162,94 -172,214 165,802 756,576 244,-92 525,-404 477,-532 -52,-143 -225,155 -256,186 -100,101 -230,142 -368,110 6,-73 34,-152 46,-238 134,-966 -573,-897 -1038,-545 -383,290 -744,801 -769,1290 -6,117 15,186 15,284 -144,0 -216,-7 -305,-69 -101,-69 -125,-98 -199,-189 -102,-123 -216,-325 -257,-504 -63,0 -83,11 -121,12 -46,2 -65,-12 -133,-12l0 -15c209,0 542,-160 675,-250 160,-108 394,-310 360,-560 -19,-139 -100,-216 -244,-220 -302,-11 34,37 -444,497 -57,56 -206,171 -287,190z"/>
  <path class="fil2" d="M1677 2513c-577,1656 314,2384 1071,2850 1731,1067 5051,110 6499,607 -1662,-77 -3207,384 -4661,1267 -3427,-1072 -4988,-2525 -2909,-4724z"/>
  <path class="fil2" d="M5209 7955c237,846 869,653 1539,353 481,-216 968,-379 1459,-502l173 0 0 -42c224,-52 448,-96 674,-133 97,120 253,195 437,195 240,0 432,-126 509,-316 55,-5 110,-10 165,-14 74,198 269,330 515,330 268,0 476,-158 532,-387 53,-2 107,-3 160,-5l0 372 465 0c285,0 491,-145 539,-383 154,0 308,0 462,0 110,25 202,43 202,106 0,48 -45,80 -161,80 -113,0 -237,-39 -324,-96l-91 204c92,65 252,109 414,109 292,0 435,-147 435,-317 0,-32 -4,-60 -12,-85 1113,0 2225,-15 3321,-178 -2384,1184 -7255,-119 -10352,2105 -1405,1008 -1373,-1080 -1061,-1396zm4188 -376c83,-12 166,-22 250,-32 -44,31 -97,48 -156,48 -33,0 -65,-5 -94,-16zm1060 -105c153,-10 306,-18 459,-25 -43,92 -132,146 -236,146 -95,0 -176,-45 -223,-121zm1193 -45c146,-3 291,-4 437,-5 -39,102 -134,160 -261,160l-176 0 0 -155z"/>
  <path class="fil3" d="M18181 2356c1998,1450 1810,2660 127,3982 982,-1061 1231,-2242 -127,-3982z"/>
  <g id="_1533063555600">
   <path class="fil3" d="M7360 2703c-5,15 -9,31 -13,48 29,14 55,24 81,34 -13,50 -38,85 -60,136 -12,30 -23,55 -34,78 -5,-3 -10,-7 -16,-10 -24,-15 -26,-20 -60,-29 -11,45 -57,143 -80,189l-180 357c-44,72 -62,140 -143,140 -204,0 248,-551 253,-776 -112,-9 -304,-211 -328,-313 -105,0 -226,5 -328,0 -55,-3 -115,-9 -178,-15 -7,-51 -25,-84 -99,-112l-325 -107c-2,-1 -7,-3 -10,-5 202,0 712,105 1268,105 18,76 141,214 252,280zm213 152c46,29 93,62 135,98 -2,62 -50,157 -161,341 -155,261 -409,785 -409,1084 0,102 38,241 81,307 84,129 196,169 315,157 -214,156 -459,241 -620,14 -181,-255 -69,-659 50,-906l222 -445c84,4 102,-68 226,-316 46,-92 125,-228 161,-334zm302 1225c148,-117 277,-289 372,-414 89,-118 153,-251 243,-370 34,-46 51,-60 87,-106 64,-82 132,-129 207,-197 39,-35 75,-57 119,-89 80,-58 194,-109 311,-135 -201,143 -381,358 -497,531 -108,161 -90,154 -235,347 -182,240 -487,446 -607,433zm1798 -1129c10,34 16,73 17,117 -7,14 -15,29 -25,46 -71,126 -229,338 -393,338 -90,0 125,-248 152,-281 52,-66 149,-190 249,-220zm-360 902c-64,60 -133,107 -202,131 -24,-53 -18,-99 -18,-203 78,41 151,65 220,72zm168 280c74,-53 141,-113 198,-170 263,-261 305,-511 429,-511 120,0 10,211 -10,258l-16 33c-55,67 -94,99 -172,168 -88,79 -262,186 -429,222zm-179 691c-158,100 -348,166 -582,166 -174,0 -388,-125 -463,-224 -72,-95 -118,-173 -143,-285 46,-51 89,-103 133,-158l175 -229c0,234 32,385 145,511 199,222 302,235 571,235 57,0 111,-5 164,-16zm-3686 -2355c-21,-1 -41,-2 -60,-2 12,8 34,18 62,29 4,34 10,79 21,142 14,83 35,118 52,188 -126,0 -243,8 -355,27 -21,-91 -41,-189 -38,-275 2,-47 4,-91 4,-141 -241,-20 -618,-66 -916,-10 39,-34 83,-69 198,-111 297,-108 736,-28 1047,-28 0,95 -20,95 -15,181zm773 886c19,85 -37,157 -206,157 -189,0 -396,-149 -433,-149 -97,0 -186,8 -270,25 38,-26 78,-51 119,-72 138,-73 221,-77 412,-97 117,-12 136,80 362,133 6,1 11,2 16,3zm-522 1361c8,-6 16,-12 24,-18 52,-39 30,-23 66,-69 61,-80 120,-58 161,0 -78,46 -162,72 -251,87zm-224 948c-57,36 -116,66 -174,89 -85,34 -159,56 -269,75 -262,44 -577,29 -825,-60 -820,-297 -944,-1183 -590,-1893 80,-160 238,-359 365,-471 76,-68 158,-120 242,-176 132,-88 270,-152 419,-196 -78,42 -154,91 -229,147 -259,193 -502,523 -602,876 -110,391 -74,837 165,1167 186,258 557,484 993,484 193,0 355,-7 505,-42zm-1386 -3204c-61,20 -116,47 -164,82 -32,23 -68,75 -104,75 -235,0 -220,-383 -100,-549 109,-152 268,-228 445,-258 -267,207 -270,548 -77,650zm1343 -682c133,-130 310,-224 503,-281 -58,37 -110,78 -155,123 -56,56 -147,140 -168,221 -40,-20 -103,-41 -180,-63zm-104 674c16,-15 57,24 17,8 0,0 -42,17 -17,-8zm989 -518c19,-3 38,-4 56,-4 91,0 388,-20 388,149 0,10 -3,19 -7,28 42,1 88,2 142,2 70,0 72,-33 108,-71 61,-66 86,-41 86,-93 0,-205 -520,-224 -773,-11z"/>
   <path class="fil3" d="M13675 3691l-15 15 15 -15zm15 -30l-15 30 15 -30zm15 -15l-15 15 15 -15zm0 0l0 0zm-1612 -746c0,-38 24,-2 9,0 0,0 -9,42 -9,0zm-126 967c69,89 159,163 277,210 270,110 637,81 899,-82 9,-6 18,-12 27,-19 -417,88 -801,-35 -972,-419 -94,-211 -105,-327 -105,-627 -2,3 -4,8 -5,10 -40,93 -82,314 -36,494 16,60 33,77 6,146 -22,56 -56,158 -91,287zm1300 85c-59,72 -138,146 -186,175 -171,107 -86,-18 -257,325 -116,233 -217,382 -373,582 -71,93 -154,183 -249,255 425,-24 768,-668 944,-962l122 -252c21,-36 13,-24 58,-46 143,-72 168,-101 263,-215 27,-33 60,-66 71,-108 -120,80 -187,182 -393,246zm24 -1964c170,22 258,282 86,987l-109 375c73,27 155,43 243,43 55,0 88,-172 113,-260 56,-197 349,-1278 6,-1278 -147,0 -250,55 -339,133zm-2556 2539c0,367 85,653 248,887 128,185 389,396 692,396l164 0c192,0 389,-71 580,-182 -708,210 -1356,-272 -1356,-1176l0 -104c0,-757 563,-1689 1138,-2220 171,-158 401,-326 624,-445 -211,74 -416,186 -571,289 -780,519 -1519,1622 -1519,2555z"/>
   <path class="fil3" d="M15153 3676l0 0zm-777 1657c93,0 191,-38 254,-105 -4,-18 -10,-34 -16,-49 -275,-45 -352,-371 -328,-668 46,-551 755,-1975 1180,-2525 -13,-35 -47,-56 -119,-56 -164,0 -780,1124 -906,1378 -167,337 -373,827 -456,1186 -82,357 -11,839 391,839zm568 -250c63,109 142,206 239,265 162,99 392,28 530,-92 -69,2 -134,-14 -188,-42 -45,-23 -57,-34 -95,-69l-22 -23c-137,-142 -198,-278 -270,-476l-104 -389c-6,-33 -6,-41 -12,-63l-1 -4 -3 -6 -22 0c-29,152 -136,498 -106,695 8,58 9,74 29,120 22,52 24,34 25,84zm967 119c89,105 255,161 421,161 166,0 323,-63 463,-157 -182,47 -365,30 -505,-101 -25,-23 -51,-48 -72,-77 -29,-40 -29,-56 -66,-83 -23,100 -129,199 -241,257zm1260 -1700c30,8 57,28 78,63 12,22 19,46 22,72 34,-33 81,-62 136,-66 99,-7 114,35 176,56 -3,-82 -12,-165 -38,-240 -21,-16 -52,-26 -94,-25 -97,0 -194,57 -280,140zm37 242c-51,-29 -99,-47 -183,-17 -17,6 -31,12 -45,19 -46,76 -83,153 -107,217 2,138 95,289 243,381 17,-8 33,-18 49,-29 44,-29 75,-76 130,-66 71,13 164,88 237,173 10,-2 21,-4 32,-6 117,-25 211,-73 292,-134 -442,77 -703,-312 -648,-538zm926 220c18,-35 29,-68 26,-92 -4,-22 7,-59 -64,-52 -50,6 -74,37 -93,65 -33,51 -62,93 -91,129 79,7 155,-11 222,-50zm-1149 -825c-551,135 -1223,900 -1222,1560 12,9 25,18 40,28 89,62 161,69 305,69 0,-98 -21,-167 -15,-284 25,-489 386,-1000 769,-1290 40,-30 81,-57 123,-83zm-1800 905c47,-21 95,-43 141,-68 -84,26 -165,43 -233,43l0 15c45,0 68,6 92,10zm508 -876c-110,-71 -210,-36 -287,-29 0,140 -97,288 -222,414 -18,60 -30,103 -31,123 81,-19 230,-134 287,-190 148,-142 218,-244 253,-318z"/>
  </g>
  <path class="fil4" d="M8780 7107l0 -69 -400 0 0 69 400 0zm-678 -215l-93 0 0 984 278 0 0 -70 -185 0 0 -914zm278 647l341 0 0 -70 -341 0 0 70zm1018 356c159,0 297,-55 394,-147 -85,49 -187,78 -301,78 -314,0 -546,-217 -546,-512 0,-146 57,-273 153,-363 -151,88 -246,244 -246,433 0,295 232,511 546,511zm-109 -770c33,-14 70,-22 109,-22 149,0 266,111 266,281 0,77 -24,141 -64,189 93,-40 157,-133 157,-259 0,-170 -117,-281 -266,-281 -81,0 -153,34 -202,92zm1298 770c158,0 296,-55 393,-147 -84,49 -187,78 -300,78 -315,0 -547,-217 -547,-512 0,-146 57,-273 153,-363 -151,88 -246,244 -246,433 0,295 232,511 547,511zm-109 -770c33,-14 70,-22 109,-22 148,0 265,111 265,281 0,77 -24,141 -63,189 93,-40 156,-133 156,-259 0,-170 -116,-281 -265,-281 -82,0 -154,34 -202,92zm801 751l465 0c172,0 315,-53 413,-148 -88,51 -196,78 -320,78l-465 0 0 -914 -93 0 0 984zm371 -762l83 0c167,0 279,100 279,270 0,72 -20,131 -55,175 92,-39 148,-124 148,-245 0,-170 -112,-269 -279,-269l-176 0 0 69zm1135 781c171,0 291,-50 361,-126 -68,36 -157,57 -268,57 -162,0 -322,-44 -414,-109l47 -106c-17,-9 -34,-18 -49,-28l-92 204c93,65 253,108 415,108zm-28 -801c18,-3 40,-5 64,-5 86,0 179,25 273,76l40 -96c-76,-33 -150,-50 -219,-50 -106,0 -151,32 -158,75zm-203 -165c-111,57 -167,154 -167,263 0,365 559,252 559,407 0,2 0,4 0,6 66,-11 94,-39 94,-76 0,-155 -560,-42 -560,-407 0,-73 25,-140 74,-193z"/>
 </g>
</svg>
